<svg width="21" height="17" viewBox="0 0 21 17" fill="none" xmlns="http://www.w3.org/2000/svg">
<path d="M19.1827 8.90725H0.738934C0.542957 8.90725 0.355005 8.82941 0.216428 8.69085C0.0778512 8.55228 0 8.36434 0 8.16838C0 7.97242 0.0778512 7.78449 0.216428 7.64593C0.355005 7.50736 0.542957 7.4295 0.738934 7.4295H19.1827C19.3787 7.4295 19.5667 7.50736 19.7052 7.64593C19.8438 7.78449 19.9217 7.97242 19.9217 8.16838C19.9217 8.36434 19.8438 8.55228 19.7052 8.69085C19.5667 8.82941 19.3787 8.90725 19.1827 8.90725Z" fill="#EA2121"/>
<path d="M12.3076 0.522411C12.4462 0.383845 12.6341 0.305999 12.8301 0.305999C13.0261 0.305999 13.214 0.383844 13.3526 0.52241L20.4775 7.64673C20.6161 7.78529 20.6939 7.97323 20.6939 8.16919C20.6939 8.36515 20.6161 8.55309 20.4775 8.69165L13.3526 15.816C13.214 15.9545 13.0261 16.0324 12.8301 16.0324C12.6341 16.0324 12.4462 15.9545 12.3076 15.816C12.169 15.6774 12.0912 15.4895 12.0912 15.2935C12.0912 15.0975 12.169 14.9096 12.3076 14.771L18.91 8.16919L12.3076 1.56734C12.169 1.42877 12.0912 1.24084 12.0912 1.04487C12.0912 0.848912 12.169 0.660977 12.3076 0.522411Z" fill="#EA2121"/>
</svg>
