<svg width="21" height="17" viewBox="0 0 21 17" fill="none" xmlns="http://www.w3.org/2000/svg">
<path d="M1.81727 8.90725H20.2611C20.457 8.90725 20.645 8.82941 20.7836 8.69085C20.9221 8.55228 21 8.36434 21 8.16838C21 7.97242 20.9221 7.78449 20.7836 7.64593C20.645 7.50736 20.457 7.4295 20.2611 7.4295H1.81727C1.62129 7.4295 1.43335 7.50736 1.29477 7.64593C1.15619 7.78449 1.07834 7.97242 1.07834 8.16838C1.07834 8.36434 1.15619 8.55228 1.29477 8.69085C1.43335 8.82941 1.62129 8.90725 1.81727 8.90725Z" fill="#EA2121"/>
<path d="M8.6924 0.522411C8.55382 0.383845 8.36587 0.305999 8.16989 0.305999C7.97391 0.305999 7.78596 0.383844 7.64739 0.52241L0.522505 7.64673C0.383928 7.78529 0.306076 7.97323 0.306076 8.16919C0.306076 8.36515 0.383928 8.55309 0.522505 8.69165L7.64739 15.816C7.78596 15.9545 7.97391 16.0324 8.16989 16.0324C8.36587 16.0324 8.55382 15.9545 8.6924 15.816C8.83097 15.6774 8.90882 15.4895 8.90882 15.2935C8.90882 15.0975 8.83097 14.9096 8.6924 14.771L2.09002 8.16919L8.6924 1.56734C8.83097 1.42877 8.90882 1.24084 8.90882 1.04487C8.90882 0.848912 8.83097 0.660977 8.6924 0.522411Z" fill="#EA2121"/>
</svg>
