<svg width="18" height="14" viewBox="0 0 18 14" fill="none" xmlns="http://www.w3.org/2000/svg">
<path d="M16.4423 7.63493H0.633372C0.465391 7.63493 0.30429 7.56821 0.18551 7.44944C0.0667296 7.33067 0 7.16958 0 7.00161C0 6.83364 0.0667296 6.67256 0.18551 6.55379C0.30429 6.43502 0.465391 6.36829 0.633372 6.36829H16.4423C16.6103 6.36829 16.7714 6.43502 16.8902 6.55379C17.009 6.67256 17.0757 6.83364 17.0757 7.00161C17.0757 7.16958 17.009 7.33067 16.8902 7.44944C16.7714 7.56821 16.6103 7.63493 16.4423 7.63493Z" fill="white"/>
<path d="M10.5494 0.447693C10.6682 0.328922 10.8293 0.262198 10.9972 0.262197C11.1652 0.262197 11.3263 0.328922 11.4451 0.447693L17.5521 6.55425C17.6709 6.67302 17.7376 6.83411 17.7376 7.00208C17.7376 7.17004 17.6709 7.33113 17.5521 7.4499L11.4451 13.5565C11.3263 13.6752 11.1652 13.742 10.9972 13.742C10.8293 13.742 10.6682 13.6752 10.5494 13.5565C10.4306 13.4377 10.3639 13.2766 10.3639 13.1086C10.3639 12.9407 10.4306 12.7796 10.5494 12.6608L16.2086 7.00208L10.5494 1.34334C10.4306 1.22457 10.3639 1.06349 10.3639 0.895519C10.3639 0.727552 10.4306 0.566464 10.5494 0.447693Z" fill="white"/>
</svg>
