<svg width="18" height="13" viewBox="0 0 18 13" fill="none" xmlns="http://www.w3.org/2000/svg">
<path d="M6.73535 12.5008L0.535158 6.28371C0.465623 6.21391 0.41058 6.13115 0.373048 6.04006C0.335517 5.94896 0.316222 5.85135 0.316408 5.75283C0.316593 5.6543 0.33615 5.55679 0.374025 5.46584C0.411899 5.37489 0.467313 5.29227 0.537111 5.22273C0.606908 5.1532 0.690157 5.0981 0.781251 5.06056C0.872346 5.02303 0.969838 5.0038 1.06836 5.00398C1.16688 5.00417 1.26452 5.02379 1.35547 5.06166C1.44642 5.09954 1.52861 5.15495 1.59815 5.22475L6.72119 10.3617L16.3975 0.392718C16.4658 0.320992 16.5475 0.263543 16.6382 0.223651C16.7289 0.183758 16.8267 0.16221 16.9258 0.160296C17.0248 0.158382 17.1232 0.176122 17.2153 0.212481C17.3075 0.248841 17.3918 0.303117 17.4629 0.372149C17.534 0.441181 17.5904 0.523632 17.6294 0.614703C17.6684 0.705774 17.6894 0.803648 17.6904 0.902728C17.6914 1.00181 17.6725 1.10009 17.6353 1.19191C17.598 1.28374 17.5428 1.36733 17.4731 1.43776L6.73535 12.5008Z" fill="#EA2121"/>
</svg>
