<svg width="24" height="24" viewBox="0 0 24 24" fill="none" xmlns="http://www.w3.org/2000/svg">
<g clip-path="url(#clip0_358_459)">
<path d="M22.0228 3.47775C19.3873 0.84075 15.1131 0.84075 12.4776 3.47775L1.53506 14.2905C-0.511688 16.3373 -0.511688 19.6688 1.53506 21.7155C3.58181 23.7623 6.91256 23.7623 8.95856 21.7155L19.9011 10.902C21.3658 9.43725 21.3658 7.0635 19.9011 5.59875C18.4363 4.13475 16.0618 4.13475 14.5986 5.59875L6.37256 13.8248C6.07931 14.1188 6.07931 14.592 6.37256 14.886C6.66581 15.1793 7.13981 15.1793 7.43306 14.886L15.6598 6.65925C16.5373 5.7825 17.9638 5.7825 18.8413 6.65925C19.7188 7.53675 19.7188 8.964 18.8413 9.8415L7.89881 20.6543C6.43406 22.119 4.06106 22.119 2.59631 20.6543C1.13156 19.1903 1.13156 16.8158 2.59631 15.3518L13.4316 4.644C15.4821 2.5935 18.8076 2.5935 20.8551 4.644C22.9071 6.69525 22.9071 10.0178 20.8566 12.0683L12.7371 20.1885C12.4423 20.4825 12.4423 20.9558 12.7371 21.249C13.0303 21.543 13.5043 21.543 13.7976 21.249L22.0228 13.023C24.6598 10.3875 24.6598 6.11325 22.0228 3.47775Z" fill="#EA2121"/>
</g>
<defs>
<clipPath id="clip0_358_459">
<rect width="24" height="24" fill="white"/>
</clipPath>
</defs>
</svg>
