<svg width="220" height="115" viewBox="0 0 220 115" fill="none" xmlns="http://www.w3.org/2000/svg">
<path d="M0 0H220V114.583H0V0Z" fill="#EA2121"/>
<path d="M23.6262 87.9941V89.0369H19.7826V96.0226H18.5557V87.9941H23.6262Z" fill="white"/>
<path d="M26.2389 96.0226V87.9941H31.3372V89.0369H27.4658V91.483H31.0712V92.5219H27.4658V94.9798H31.3849V96.0226H26.2389Z" fill="white"/>
<path d="M34.206 96.0226V87.9941H35.433V91.483H39.487V87.9941H40.7179V96.0226H39.487V92.5219H35.433V96.0226H34.206Z" fill="white"/>
<path d="M43.7346 96.0226V87.9941H48.833V89.0369H44.9616V91.483H48.5669V92.5219H44.9616V94.9798H48.8806V96.0226H43.7346Z" fill="white"/>
<path d="M51.7018 96.0226V87.9941H54.6004C55.233 87.9941 55.7571 88.1078 56.1727 88.3352C56.5883 88.5625 56.8994 88.8735 57.1058 89.2682C57.3123 89.6602 57.4156 90.1018 57.4156 90.5932C57.4156 91.0871 57.311 91.5314 57.1019 91.926C56.8954 92.318 56.583 92.629 56.1648 92.859C55.7492 93.0864 55.2264 93.2001 54.5964 93.2001H52.6031V92.173H54.4852C54.8849 92.173 55.2092 92.105 55.458 91.9691C55.7068 91.8306 55.8895 91.6425 56.006 91.4046C56.1224 91.1668 56.1807 90.8963 56.1807 90.5932C56.1807 90.29 56.1224 90.0208 56.006 89.7856C55.8895 89.5504 55.7055 89.3662 55.454 89.2329C55.2052 89.0996 54.877 89.0329 54.4693 89.0329H52.9287V96.0226H51.7018Z" fill="white"/>
<path d="M59.9082 96.0226H58.6058L61.5322 87.9941H62.9497L65.876 96.0226H64.5737L62.2747 89.4524H62.2111L59.9082 96.0226ZM60.1265 92.8786H64.3513V93.8979H60.1265V92.8786Z" fill="white"/>
<path d="M67.6649 96.0226V94.972L67.9031 94.9641C68.226 94.9563 68.4802 94.8478 68.6655 94.6388C68.8534 94.4297 68.9897 94.0926 69.0744 93.6274C69.1618 93.1622 69.22 92.5415 69.2491 91.7653L69.3881 87.9941H74.5301V96.0226H73.3191V89.0212H70.5436L70.4165 92.0867C70.3821 92.9466 70.2948 93.6692 70.1545 94.2546C70.0142 94.8374 69.7759 95.2778 69.4397 95.5757C69.1062 95.8736 68.6311 96.0226 68.0143 96.0226H67.6649Z" fill="white"/>
<path d="M78.4085 91.2322H80.6003C81.2038 91.2322 81.7173 91.3288 82.1409 91.5222C82.5644 91.7156 82.8874 91.9887 83.1097 92.3416C83.3347 92.6944 83.4459 93.1099 83.4433 93.5882C83.4459 94.0664 83.3347 94.4885 83.1097 94.8544C82.8874 95.2203 82.5644 95.5064 82.1409 95.7129C81.7173 95.9193 81.2038 96.0226 80.6003 96.0226H77.5548V87.9941H78.7857V95.0033H80.6003C80.9523 95.0033 81.2488 94.9354 81.4897 94.7995C81.7332 94.6636 81.9172 94.4872 82.0416 94.2703C82.1687 94.0534 82.2322 93.8208 82.2322 93.5725C82.2322 93.2118 82.0919 92.9021 81.8113 92.6434C81.5307 92.3821 81.127 92.2514 80.6003 92.2514H78.4085V91.2322Z" fill="white"/>
<path d="M86.1691 96.0226V87.9941H87.3961V91.483H91.4501V87.9941H92.681V96.0226H91.4501V92.5219H87.3961V96.0226H86.1691Z" fill="white"/>
<path d="M96.5594 91.2322H98.7512C99.3547 91.2322 99.8682 91.3288 100.292 91.5222C100.715 91.7156 101.038 91.9887 101.261 92.3416C101.486 92.6944 101.597 93.1099 101.594 93.5882C101.597 94.0664 101.486 94.4885 101.261 94.8544C101.038 95.2203 100.715 95.5064 100.292 95.7129C99.8682 95.9193 99.3547 96.0226 98.7512 96.0226H95.7057V87.9941H96.9366V95.0033H98.7512C99.1032 95.0033 99.3997 94.9354 99.6406 94.7995C99.8841 94.6636 100.068 94.4872 100.193 94.2703C100.32 94.0534 100.383 93.8208 100.383 93.5725C100.383 93.2118 100.243 92.9021 99.9622 92.6434C99.6816 92.3821 99.2779 92.2514 98.7512 92.2514H96.5594V91.2322ZM103.576 87.9941V96.0226H102.345V87.9941H103.576Z" fill="white"/>
<path d="M106.591 87.9941H107.806V93.89H107.882L112.019 87.9941H113.155V96.0226H111.928V90.1345H111.852L107.723 96.0226H106.591V87.9941ZM110.653 85.9556H111.63C111.63 86.3973 111.471 86.7566 111.154 87.0337C110.839 87.3081 110.412 87.4453 109.875 87.4453C109.34 87.4453 108.915 87.3081 108.6 87.0337C108.285 86.7566 108.128 86.3973 108.128 85.9556H109.101C109.101 86.1516 109.159 86.3254 109.275 86.477C109.392 86.626 109.592 86.7005 109.875 86.7005C110.153 86.7005 110.351 86.626 110.471 86.477C110.592 86.328 110.653 86.1542 110.653 85.9556Z" fill="white"/>
<path d="M126.721 87.9941V96.0226H125.498V89.029H121.67V96.0226H120.447V87.9941H126.721Z" fill="white"/>
<path d="M136.89 92.0083C136.89 92.8655 136.732 93.6025 136.414 94.2193C136.096 94.8335 135.661 95.3065 135.108 95.6384C134.557 95.9677 133.931 96.1323 133.229 96.1323C132.525 96.1323 131.897 95.9677 131.343 95.6384C130.793 95.3065 130.359 94.8322 130.041 94.2154C129.723 93.5986 129.565 92.8629 129.565 92.0083C129.565 91.1511 129.723 90.4155 130.041 89.8013C130.359 89.1845 130.793 88.7115 131.343 88.3822C131.897 88.0503 132.525 87.8843 133.229 87.8843C133.931 87.8843 134.557 88.0503 135.108 88.3822C135.661 88.7115 136.096 89.1845 136.414 89.8013C136.732 90.4155 136.89 91.1511 136.89 92.0083ZM135.675 92.0083C135.675 91.355 135.568 90.8049 135.354 90.358C135.142 89.9084 134.851 89.5687 134.48 89.3387C134.112 89.1061 133.695 88.9898 133.229 88.9898C132.761 88.9898 132.343 89.1061 131.975 89.3387C131.607 89.5687 131.316 89.9084 131.101 90.358C130.889 90.8049 130.784 91.355 130.784 92.0083C130.784 92.6617 130.889 93.2131 131.101 93.6626C131.316 94.1095 131.607 94.4493 131.975 94.6819C132.343 94.9119 132.761 95.0269 133.229 95.0269C133.695 95.0269 134.112 94.9119 134.48 94.6819C134.851 94.4493 135.142 94.1095 135.354 93.6626C135.568 93.2131 135.675 92.6617 135.675 92.0083Z" fill="white"/>
<path d="M139.035 97.9631V94.9955H139.571C139.753 94.8439 139.924 94.6283 140.083 94.3487C140.242 94.069 140.377 93.6914 140.488 93.2157C140.599 92.7401 140.676 92.1299 140.718 91.385L140.909 87.9941H145.924V94.9955H146.845V97.9513H145.67V96.0226H140.21V97.9631H139.035ZM141.016 94.9955H144.748V89.0369H142.02L141.893 91.385C141.859 91.9522 141.802 92.4618 141.723 92.9139C141.646 93.366 141.547 93.7659 141.425 94.1135C141.306 94.4584 141.169 94.7524 141.016 94.9955Z" fill="white"/>
<path d="M149.419 96.0226V87.9941H152.317C152.95 87.9941 153.474 88.1078 153.89 88.3352C154.305 88.5625 154.616 88.8735 154.823 89.2682C155.029 89.6602 155.133 90.1018 155.133 90.5932C155.133 91.0871 155.028 91.5314 154.819 91.926C154.612 92.318 154.3 92.629 153.882 92.859C153.466 93.0864 152.943 93.2001 152.313 93.2001H150.32V92.173H152.202C152.602 92.173 152.926 92.105 153.175 91.9691C153.424 91.8306 153.607 91.6425 153.723 91.4046C153.839 91.1668 153.898 90.8963 153.898 90.5932C153.898 90.29 153.839 90.0208 153.723 89.7856C153.607 89.5504 153.423 89.3662 153.171 89.2329C152.922 89.0996 152.594 89.0329 152.186 89.0329H150.646V96.0226H149.419Z" fill="white"/>
<path d="M163.566 96.0226H162.335V89.0329H160.795C160.392 89.0329 160.066 89.0931 159.814 89.2133C159.563 89.3309 159.379 89.5008 159.262 89.7229C159.146 89.945 159.087 90.2077 159.087 90.5108C159.087 90.8114 159.146 91.0688 159.262 91.2831C159.379 91.4974 159.561 91.6608 159.81 91.7731C160.059 91.8855 160.383 91.9417 160.783 91.9417H162.867V92.9845H160.668C160.04 92.9845 159.518 92.8812 159.099 92.6748C158.684 92.4683 158.371 92.1795 158.162 91.8084C157.956 91.4347 157.853 91.0022 157.853 90.5108C157.853 90.0169 157.956 89.5818 158.162 89.2054C158.369 88.8265 158.68 88.5299 159.095 88.3156C159.514 88.1013 160.036 87.9941 160.664 87.9941H163.566V96.0226ZM159.552 92.4004H160.91L158.937 96.0226H157.543L159.552 92.4004Z" fill="white"/>
<path d="M165.972 97.9631V94.9955H166.508C166.69 94.8439 166.861 94.6283 167.02 94.3487C167.179 94.069 167.314 93.6914 167.425 93.2157C167.536 92.7401 167.613 92.1299 167.655 91.385L167.846 87.9941H172.861V94.9955H173.782V97.9513H172.606V96.0226H167.147V97.9631H165.972ZM167.953 94.9955H171.685V89.0369H168.957L168.83 91.385C168.796 91.9522 168.739 92.4618 168.66 92.9139C168.583 93.366 168.484 93.7659 168.362 94.1135C168.243 94.4584 168.106 94.7524 167.953 94.9955Z" fill="white"/>
<path d="M176.519 87.9941H177.73V90.6441C177.73 91.0126 177.795 91.304 177.924 91.5183C178.054 91.73 178.242 91.8803 178.488 91.9691C178.737 92.058 179.039 92.1024 179.393 92.1024C179.581 92.1024 179.772 92.0959 179.965 92.0828C180.161 92.0671 180.356 92.0462 180.549 92.0201C180.742 91.9914 180.929 91.9587 181.109 91.9221C181.291 91.8829 181.461 91.8398 181.617 91.7927V92.8237C181.463 92.8734 181.301 92.9178 181.129 92.957C180.959 92.9936 180.782 93.0263 180.596 93.055C180.411 93.0812 180.218 93.1021 180.017 93.1177C179.816 93.1334 179.608 93.1413 179.393 93.1413C178.8 93.1413 178.288 93.0576 177.857 92.8904C177.428 92.7205 177.097 92.4526 176.864 92.0867C176.634 91.7209 176.519 91.24 176.519 90.6441V87.9941ZM181.434 87.9941H182.649V96.0226H181.434V87.9941Z" fill="white"/>
<path d="M185.764 87.9941H186.979V93.89H187.055L191.192 87.9941H192.328V96.0226H191.101V90.1345H191.025L186.896 96.0226H185.764V87.9941Z" fill="white"/>
<path d="M200.172 96.0226L197.44 92.4239H196.574V96.0226H195.348V87.9941H196.574V91.385H196.975L200.049 87.9941H201.546L198.294 91.5889L201.669 96.0226H200.172Z" fill="white"/>
<path d="M67.332 34.9241H83.9848V38.6765H67.332V34.9241Z" fill="white"/>
<path d="M67.332 28.5452H83.9848V31.1718H67.332V28.5452Z" fill="white"/>
<path d="M67.332 22.9167H83.9848V24.7928H67.332V22.9167Z" fill="white"/>
<path d="M190.011 76.7661H184.587V43.1663H189.291V64.4302L191.211 57.0382L195.531 43.1663H201.339V76.7661H196.587V53.1023L194.427 61.3582L190.011 76.7661ZM198.651 35.6784C198.651 37.3104 198.187 38.6064 197.259 39.5664C196.331 40.5264 194.923 41.0064 193.035 41.0064C191.179 41.0064 189.803 40.5264 188.907 39.5664C188.043 38.6064 187.579 37.3104 187.515 35.6784H190.779C190.843 36.5744 191.051 37.1664 191.403 37.4544C191.787 37.7424 192.331 37.8864 193.035 37.8864C193.771 37.8864 194.331 37.7424 194.715 37.4544C195.131 37.1664 195.371 36.5744 195.435 35.6784H198.651Z" fill="white"/>
<path d="M165.605 69.0382C165.605 70.2542 165.845 71.1181 166.325 71.6301C166.837 72.1101 167.509 72.3501 168.341 72.3501C169.173 72.3501 169.829 72.1101 170.309 71.6301C170.821 71.1181 171.077 70.2542 171.077 69.0382V50.8943C171.077 49.6783 170.821 48.8303 170.309 48.3503C169.829 47.8383 169.173 47.5823 168.341 47.5823C167.509 47.5823 166.837 47.8383 166.325 48.3503C165.845 48.8303 165.605 49.6783 165.605 50.8943V69.0382ZM160.325 51.2303C160.325 48.5103 161.013 46.4303 162.389 44.9903C163.765 43.5183 165.749 42.7823 168.341 42.7823C170.933 42.7823 172.917 43.5183 174.293 44.9903C175.669 46.4303 176.357 48.5103 176.357 51.2303V68.7022C176.357 71.4221 175.669 73.5181 174.293 74.9901C172.917 76.4301 170.933 77.1501 168.341 77.1501C165.749 77.1501 163.765 76.4301 162.389 74.9901C161.013 73.5181 160.325 71.4221 160.325 68.7022V51.2303Z" fill="white"/>
<path d="M145.639 43.1663C148.295 43.1663 150.263 43.8703 151.543 45.2783C152.855 46.6863 153.511 48.7503 153.511 51.4703V55.8382C153.511 58.5582 152.855 60.6222 151.543 62.0302C150.263 63.4382 148.295 64.1422 145.639 64.1422H143.143V76.7661H137.863V43.1663H145.639ZM143.143 47.9663V59.3422H145.639C146.471 59.3422 147.111 59.1182 147.559 58.6702C148.007 58.2222 148.231 57.3902 148.231 56.1742V51.1343C148.231 49.9183 148.007 49.0863 147.559 48.6383C147.111 48.1903 146.471 47.9663 145.639 47.9663H143.143Z" fill="white"/>
<path d="M114.42 43.1663H130.74V47.9663H125.22V76.7661H119.94V47.9663H114.42V43.1663Z" fill="white"/>
<path d="M107.949 64.2382V68.7022C107.949 71.4221 107.277 73.5181 105.933 74.9901C104.621 76.4301 102.669 77.1501 100.077 77.1501C97.485 77.1501 95.517 76.4301 94.1731 74.9901C92.8611 73.5181 92.2051 71.4221 92.2051 68.7022V51.2303C92.2051 48.5103 92.8611 46.4303 94.1731 44.9903C95.517 43.5183 97.485 42.7823 100.077 42.7823C102.669 42.7823 104.621 43.5183 105.933 44.9903C107.277 46.4303 107.949 48.5103 107.949 51.2303V54.4943H102.957V50.8943C102.957 49.6783 102.701 48.8303 102.189 48.3503C101.709 47.8383 101.053 47.5823 100.221 47.5823C99.389 47.5823 98.717 47.8383 98.205 48.3503C97.725 48.8303 97.485 49.6783 97.485 50.8943V69.0382C97.485 70.2542 97.725 71.1021 98.205 71.5821C98.717 72.0621 99.389 72.3021 100.221 72.3021C101.053 72.3021 101.709 72.0621 102.189 71.5821C102.701 71.1021 102.957 70.2542 102.957 69.0382V64.2382H107.949Z" fill="white"/>
<path d="M72.6198 76.7661H67.3398V43.1663H83.9957V76.7661H78.6198V47.9663H72.6198V76.7661Z" fill="white"/>
<path d="M60.0951 76.7661H54.7671L53.8551 70.6701H47.3752L46.4632 76.7661H41.6152L46.9912 43.1663H54.7191L60.0951 76.7661ZM48.0472 66.1102H53.1351L50.5912 49.1183L48.0472 66.1102Z" fill="white"/>
<path d="M25.2469 63.3742L23.6149 66.4462V76.7661H18.335V43.1663H23.6149V57.8062L30.5269 43.1663H35.8068L28.4629 58.1422L35.8068 76.7661H30.3829L25.2469 63.3742Z" fill="white"/>
</svg>
