<svg width="86" height="70" viewBox="0 0 86 70" fill="none" xmlns="http://www.w3.org/2000/svg">
<path d="M47.7778 43.5556C47.7778 37.8519 49.026 32.6667 51.5225 28C54.019 23.2469 56.9459 19.142 60.3033 15.6852C63.7467 12.142 67.5345 8.98765 71.6667 6.22222C75.7988 3.37037 79.1131 1.2963 81.6096 0L86 7.64815C82.4705 9.72222 79.1131 11.8827 75.9279 14.1296C72.6567 16.2901 70.1602 18.3642 68.4384 20.3518C66.1141 22.9444 64.2633 25.6667 62.8859 28.5185C61.5085 31.284 60.6476 34.9568 60.3033 39.537H66.5015C71.9249 39.537 76.1431 40.9198 79.1562 43.6852C82.1692 46.4506 83.6757 50.2963 83.6757 55.2222C83.6757 58.7654 82.2983 62.0926 79.5435 65.2037C76.7888 68.4012 73.044 70 68.3093 70C60.992 70 55.7407 67.537 52.5556 62.6111C49.3704 57.7716 47.7778 51.4198 47.7778 43.5556ZM0 43.5556C0 37.8519 1.24825 32.6667 3.74474 28C6.24124 23.2469 9.16817 19.142 12.5255 15.6852C15.969 12.142 19.7568 8.98765 23.8889 6.22222C28.021 3.37037 31.3353 1.2963 33.8318 0L38.2222 7.64815C34.6927 9.72222 31.3353 11.8827 28.1502 14.1296C24.8789 16.2901 22.3824 18.3642 20.6607 20.3518C18.3363 22.9444 16.4855 25.6667 15.1081 28.5185C13.7307 31.284 12.8699 34.9568 12.5255 39.537H18.7237C24.1471 39.537 28.3654 40.9198 31.3784 43.6852C34.3914 46.4506 35.8979 50.2963 35.8979 55.2222C35.8979 58.7654 34.5205 62.0926 31.7658 65.2037C29.011 68.4012 25.2663 70 20.5315 70C13.2142 70 7.96296 67.537 4.77778 62.6111C1.59259 57.7716 0 51.4198 0 43.5556Z" fill="black" fill-opacity="0.1"/>
</svg>
