<svg width="85" height="70" viewBox="0 0 85 70" fill="none" xmlns="http://www.w3.org/2000/svg">
<path d="M37.7778 26.4444C37.7778 32.1481 36.544 37.3333 34.0766 42C31.6091 46.7531 28.7162 50.858 25.3979 54.3148C21.9945 57.858 18.2507 61.0123 14.1667 63.7778C10.0826 66.6296 6.80681 68.7037 4.33934 70L0 62.3519C3.48849 60.2778 6.80681 58.1173 9.95496 55.8704C13.1882 53.7099 15.6557 51.6358 17.3574 49.6482C19.6547 47.0556 21.484 44.3333 22.8453 41.4815C24.2067 38.716 25.0576 35.0432 25.3979 30.463H19.2718C13.9114 30.463 9.74224 29.0802 6.76426 26.3148C3.78629 23.5494 2.2973 19.7037 2.2973 14.7778C2.2973 11.2346 3.65866 7.90741 6.38138 4.7963C9.1041 1.59877 12.8053 0 17.485 0C24.7172 0 29.9074 2.46296 33.0556 7.38889C36.2037 12.2284 37.7778 18.5802 37.7778 26.4444ZM85 26.4444C85 32.1481 83.7663 37.3333 81.2988 42C78.8313 46.7531 75.9384 50.858 72.6201 54.3148C69.2167 57.858 65.473 61.0123 61.3889 63.7778C57.3048 66.6296 54.029 68.7037 51.5616 70L47.2222 62.3519C50.7107 60.2778 54.029 58.1173 57.1772 55.8704C60.4104 53.7099 62.8779 51.6358 64.5796 49.6482C66.8769 47.0556 68.7062 44.3333 70.0676 41.4815C71.4289 38.716 72.2798 35.0432 72.6201 30.463H66.494C61.1336 30.463 56.9645 29.0802 53.9865 26.3148C51.0085 23.5494 49.5195 19.7037 49.5195 14.7778C49.5195 11.2346 50.8809 7.90741 53.6036 4.7963C56.3263 1.59877 60.0275 0 64.7072 0C71.9394 0 77.1296 2.46296 80.2778 7.38889C83.4259 12.2284 85 18.5802 85 26.4444Z" fill="black" fill-opacity="0.1"/>
</svg>
